<svg xmlns="http://www.w3.org/2000/svg" xmlns:xlink="http://www.w3.org/1999/xlink" width="500" zoomAndPan="magnify" viewBox="0 0 375 374.999991" height="500" preserveAspectRatio="xMidYMid meet" version="1.0"><defs><g/><clipPath id="698781663d"><path d="M 127.0625 116.894531 L 247.8125 116.894531 L 247.8125 166 L 127.0625 166 Z M 127.0625 116.894531 " clip-rule="nonzero"/></clipPath></defs><g clip-path="url(#698781663d)"><path fill="#ed1c24" d="M 216.683594 124.820312 C 212.296875 163.859375 246.1875 155.929688 246.1875 155.929688 L 247.875 164.691406 C 207.996094 170.757812 207.523438 134.566406 207.523438 134.566406 C 167.058594 137.960938 132.582031 165.296875 132.582031 165.296875 L 127.125 158.195312 C 169.792969 125.746094 216.683594 124.820312 216.683594 124.820312 Z M 247.070312 128.964844 C 247.191406 135.757812 241.574219 141.433594 234.777344 141.433594 C 228.09375 141.433594 222.492188 135.941406 222.488281 129.1875 C 222.484375 122.441406 228.066406 116.9375 234.753906 116.921875 C 241.402344 116.910156 246.953125 122.324219 247.070312 128.964844 Z M 238.425781 128.964844 C 238.300781 127.070312 236.675781 125.550781 234.78125 125.511719 C 232.769531 125.472656 230.984375 127.105469 230.964844 129.179688 C 230.945312 131.265625 232.714844 132.964844 234.78125 132.921875 C 236.894531 132.875 238.566406 131.023438 238.425781 128.964844 Z M 238.425781 128.964844 " fill-opacity="1" fill-rule="nonzero"/><path fill="#ed1c24" d="M 216.683594 124.820312 C 212.296875 163.859375 246.1875 155.929688 246.1875 155.929688 L 247.875 164.691406 C 207.996094 170.757812 207.523438 134.566406 207.523438 134.566406 C 167.058594 137.960938 132.582031 165.296875 132.582031 165.296875 L 127.125 158.195312 C 169.792969 125.746094 216.683594 124.820312 216.683594 124.820312 Z M 247.070312 128.964844 C 247.191406 135.757812 241.574219 141.433594 234.777344 141.433594 C 228.09375 141.433594 222.492188 135.941406 222.488281 129.1875 C 222.484375 122.441406 228.066406 116.9375 234.753906 116.921875 C 241.402344 116.910156 246.953125 122.324219 247.070312 128.964844 Z M 238.425781 128.964844 C 238.300781 127.070312 236.675781 125.550781 234.78125 125.511719 C 232.769531 125.472656 230.984375 127.105469 230.964844 129.179688 C 230.945312 131.265625 232.714844 132.964844 234.78125 132.921875 C 236.894531 132.875 238.566406 131.023438 238.425781 128.964844 Z M 238.425781 128.964844 " fill-opacity="1" fill-rule="nonzero"/></g><g fill="#ffffff" fill-opacity="1"><g transform="translate(115.097247, 227.775499)"><g><path d="M 25.984375 -37.796875 L 25.984375 -31.578125 C 25.984375 -30.960938 25.675781 -30.65625 25.0625 -30.65625 L 19.296875 -30.65625 C 18.679688 -30.65625 18.375 -30.960938 18.375 -31.578125 L 18.375 -36.1875 C 18.375 -37.726562 17.609375 -38.5 16.078125 -38.5 L 13.078125 -38.5 C 11.546875 -38.5 10.78125 -37.726562 10.78125 -36.1875 L 10.78125 -9.90625 C 10.78125 -8.375 11.546875 -7.609375 13.078125 -7.609375 L 16.078125 -7.609375 C 17.609375 -7.609375 18.375 -8.375 18.375 -9.90625 L 18.375 -14.515625 C 18.375 -15.128906 18.679688 -15.4375 19.296875 -15.4375 L 25.0625 -15.4375 C 25.675781 -15.4375 25.984375 -15.128906 25.984375 -14.515625 L 25.984375 -8.296875 C 25.984375 -5.609375 25.269531 -3.550781 23.84375 -2.125 C 22.425781 -0.707031 20.375 0 17.6875 0 L 11.234375 0 C 8.546875 0 6.476562 -0.707031 5.03125 -2.125 C 3.59375 -3.550781 2.875 -5.609375 2.875 -8.296875 L 2.875 -37.796875 C 2.875 -40.523438 3.59375 -42.585938 5.03125 -43.984375 C 6.476562 -45.390625 8.546875 -46.09375 11.234375 -46.09375 L 17.6875 -46.09375 C 20.375 -46.09375 22.425781 -45.390625 23.84375 -43.984375 C 25.269531 -42.585938 25.984375 -40.523438 25.984375 -37.796875 Z M 25.984375 -37.796875 "/></g></g></g><g fill="#ffffff" fill-opacity="1"><g transform="translate(143.969769, 227.775499)"><g><path d="M 26.5625 -37.796875 L 26.5625 -23.734375 C 26.5625 -19.898438 25.160156 -17.367188 22.359375 -16.140625 L 26.328125 -1.03125 C 26.523438 -0.34375 26.257812 0 25.53125 0 L 19.53125 0 C 19 0 18.675781 -0.269531 18.5625 -0.8125 L 14.6875 -15.4375 L 10.71875 -15.4375 L 10.71875 -0.921875 C 10.71875 -0.304688 10.410156 0 9.796875 0 L 3.796875 0 C 3.179688 0 2.875 -0.304688 2.875 -0.921875 L 2.875 -45.171875 C 2.875 -45.785156 3.179688 -46.09375 3.796875 -46.09375 L 18.265625 -46.09375 C 20.992188 -46.09375 23.054688 -45.390625 24.453125 -43.984375 C 25.859375 -42.585938 26.5625 -40.523438 26.5625 -37.796875 Z M 10.71875 -23.046875 L 16.421875 -23.046875 C 17.960938 -23.046875 18.734375 -23.816406 18.734375 -25.359375 L 18.734375 -36.1875 C 18.734375 -37.726562 17.960938 -38.5 16.421875 -38.5 L 10.71875 -38.5 Z M 10.71875 -23.046875 "/></g></g></g><g fill="#ffffff" fill-opacity="1"><g transform="translate(173.418589, 227.775499)"><g><path d="M 19.484375 -46.09375 L 24.78125 -46.09375 C 25.082031 -46.09375 25.347656 -45.976562 25.578125 -45.75 C 25.816406 -45.519531 25.9375 -45.253906 25.9375 -44.953125 L 25.9375 -8.296875 C 25.9375 -5.609375 25.234375 -3.550781 23.828125 -2.125 C 22.421875 -0.707031 20.359375 0 17.640625 0 L 11.171875 0 C 8.484375 0 6.425781 -0.707031 5 -2.125 C 3.582031 -3.550781 2.875 -5.609375 2.875 -8.296875 L 2.875 -44.953125 C 2.875 -45.253906 2.988281 -45.519531 3.21875 -45.75 C 3.457031 -45.976562 3.726562 -46.09375 4.03125 -46.09375 L 9.5625 -46.09375 C 9.875 -46.09375 10.144531 -45.976562 10.375 -45.75 C 10.601562 -45.519531 10.71875 -45.253906 10.71875 -44.953125 L 10.71875 -9.90625 C 10.71875 -8.375 11.484375 -7.609375 13.015625 -7.609375 L 16.015625 -7.609375 C 17.554688 -7.609375 18.328125 -8.375 18.328125 -9.90625 L 18.328125 -44.953125 C 18.328125 -45.253906 18.441406 -45.519531 18.671875 -45.75 C 18.898438 -45.976562 19.171875 -46.09375 19.484375 -46.09375 Z M 19.484375 -46.09375 "/></g></g></g><g fill="#ffffff" fill-opacity="1"><g transform="translate(202.233469, 227.775499)"><g><path d="M 11.171875 -46.09375 L 17.640625 -46.09375 C 20.359375 -46.09375 22.421875 -45.390625 23.828125 -43.984375 C 25.234375 -42.585938 25.9375 -40.523438 25.9375 -37.796875 L 25.9375 -31.6875 C 25.9375 -31.070312 25.628906 -30.765625 25.015625 -30.765625 L 19.015625 -30.765625 C 18.398438 -30.765625 18.09375 -31.070312 18.09375 -31.6875 L 18.09375 -36.1875 C 18.09375 -37.726562 17.328125 -38.5 15.796875 -38.5 L 13.015625 -38.5 C 11.484375 -38.5 10.71875 -37.726562 10.71875 -36.1875 L 10.71875 -28.234375 L 24.4375 -23.734375 C 25.4375 -23.316406 25.9375 -22.609375 25.9375 -21.609375 L 25.9375 -8.296875 C 25.9375 -5.609375 25.234375 -3.550781 23.828125 -2.125 C 22.421875 -0.707031 20.359375 0 17.640625 0 L 11.171875 0 C 8.484375 0 6.425781 -0.707031 5 -2.125 C 3.582031 -3.550781 2.875 -5.609375 2.875 -8.296875 L 2.875 -14.34375 C 2.875 -14.957031 3.179688 -15.265625 3.796875 -15.265625 L 9.796875 -15.265625 C 10.410156 -15.265625 10.71875 -14.957031 10.71875 -14.34375 L 10.71875 -9.90625 C 10.71875 -8.375 11.484375 -7.609375 13.015625 -7.609375 L 15.796875 -7.609375 C 17.328125 -7.609375 18.09375 -8.375 18.09375 -9.90625 L 18.09375 -17.578125 L 4.4375 -22.078125 C 3.394531 -22.421875 2.875 -23.128906 2.875 -24.203125 L 2.875 -37.796875 C 2.875 -40.523438 3.582031 -42.585938 5 -43.984375 C 6.425781 -45.390625 8.484375 -46.09375 11.171875 -46.09375 Z M 11.171875 -46.09375 "/></g></g></g><g fill="#ffffff" fill-opacity="1"><g transform="translate(231.048348, 227.775499)"><g><path d="M 18.09375 -26.859375 L 18.09375 -45.171875 C 18.09375 -45.785156 18.398438 -46.09375 19.015625 -46.09375 L 24.953125 -46.09375 C 25.609375 -46.09375 25.9375 -45.785156 25.9375 -45.171875 L 25.9375 -0.921875 C 25.9375 -0.304688 25.609375 0 24.953125 0 L 19.015625 0 C 18.398438 0 18.09375 -0.304688 18.09375 -0.921875 L 18.09375 -19.25 L 10.71875 -19.25 L 10.71875 -0.921875 C 10.71875 -0.304688 10.410156 0 9.796875 0 L 3.859375 0 C 3.203125 0 2.875 -0.304688 2.875 -0.921875 L 2.875 -45.171875 C 2.875 -45.785156 3.203125 -46.09375 3.859375 -46.09375 L 9.796875 -46.09375 C 10.410156 -46.09375 10.71875 -45.785156 10.71875 -45.171875 L 10.71875 -26.859375 Z M 18.09375 -26.859375 "/></g></g></g><g fill="#ed1c24" fill-opacity="1"><g transform="translate(136.87608, 254.512147)"><g><path d="M 0.828125 -2.390625 L 0.828125 -10.875 C 0.828125 -11.65625 1.03125 -12.25 1.4375 -12.65625 C 1.851562 -13.0625 2.445312 -13.265625 3.21875 -13.265625 L 5.40625 -13.265625 C 6.175781 -13.265625 6.765625 -13.0625 7.171875 -12.65625 C 7.585938 -12.25 7.796875 -11.65625 7.796875 -10.875 L 7.796875 -9.15625 C 7.796875 -8.976562 7.707031 -8.890625 7.53125 -8.890625 L 5.875 -8.890625 C 5.695312 -8.890625 5.609375 -8.976562 5.609375 -9.15625 L 5.609375 -10.40625 C 5.609375 -10.851562 5.382812 -11.078125 4.9375 -11.078125 L 3.75 -11.078125 C 3.300781 -11.078125 3.078125 -10.851562 3.078125 -10.40625 L 3.078125 -2.84375 C 3.078125 -2.40625 3.300781 -2.1875 3.75 -2.1875 L 4.9375 -2.1875 C 5.382812 -2.1875 5.609375 -2.40625 5.609375 -2.84375 L 5.609375 -5.078125 L 4.734375 -5.078125 C 4.554688 -5.078125 4.46875 -5.164062 4.46875 -5.34375 L 4.46875 -7 C 4.46875 -7.175781 4.554688 -7.265625 4.734375 -7.265625 L 7.53125 -7.265625 C 7.707031 -7.265625 7.796875 -7.175781 7.796875 -7 L 7.796875 -2.390625 C 7.796875 -1.617188 7.585938 -1.023438 7.171875 -0.609375 C 6.765625 -0.203125 6.175781 0 5.40625 0 L 3.21875 0 C 2.445312 0 1.851562 -0.203125 1.4375 -0.609375 C 1.03125 -1.023438 0.828125 -1.617188 0.828125 -2.390625 Z M 0.828125 -2.390625 "/></g></g></g><g fill="#ed1c24" fill-opacity="1"><g transform="translate(147.564991, 254.512147)"><g><path d="M 6.765625 -13.265625 L 8.421875 -13.265625 C 8.546875 -13.265625 8.632812 -13.226562 8.6875 -13.15625 C 8.738281 -13.09375 8.738281 -13 8.6875 -12.875 L 5.65625 -5.5 L 5.65625 -0.328125 C 5.65625 -0.109375 5.546875 0 5.328125 0 L 3.734375 0 C 3.515625 0 3.40625 -0.109375 3.40625 -0.328125 L 3.40625 -5.5 L 0.359375 -12.875 C 0.316406 -13 0.320312 -13.09375 0.375 -13.15625 C 0.425781 -13.226562 0.507812 -13.265625 0.625 -13.265625 L 2.28125 -13.265625 C 2.46875 -13.265625 2.597656 -13.175781 2.671875 -13 L 4.53125 -8.234375 L 6.375 -13 C 6.445312 -13.175781 6.578125 -13.265625 6.765625 -13.265625 Z M 6.765625 -13.265625 "/></g></g></g><g fill="#ed1c24" fill-opacity="1"><g transform="translate(158.684727, 254.512147)"><g><path d="M 7.765625 -13.265625 L 9.953125 -13.265625 C 10.171875 -13.265625 10.28125 -13.15625 10.28125 -12.9375 L 10.28125 -0.328125 C 10.28125 -0.109375 10.171875 0 9.953125 0 L 8.40625 0 C 8.1875 0 8.078125 -0.109375 8.078125 -0.328125 L 8.078125 -7.796875 L 7.953125 -7.796875 L 6.3125 -0.296875 C 6.269531 -0.0976562 6.148438 0 5.953125 0 L 5.140625 0 C 4.953125 0 4.832031 -0.0976562 4.78125 -0.296875 L 3.140625 -7.796875 L 3.015625 -7.796875 L 3.015625 -0.328125 C 3.015625 -0.109375 2.90625 0 2.6875 0 L 1.15625 0 C 0.9375 0 0.828125 -0.109375 0.828125 -0.328125 L 0.828125 -12.9375 C 0.828125 -13.15625 0.9375 -13.265625 1.15625 -13.265625 L 3.34375 -13.265625 C 3.539062 -13.265625 3.664062 -13.164062 3.71875 -12.96875 L 5.546875 -4.703125 L 7.390625 -12.96875 C 7.453125 -13.164062 7.578125 -13.265625 7.765625 -13.265625 Z M 7.765625 -13.265625 "/></g></g></g><g fill="#ed1c24" fill-opacity="1"><g transform="translate(171.859179, 254.512147)"><g/></g></g><g fill="#ed1c24" fill-opacity="1"><g transform="translate(178.074092, 254.512147)"><g><path d="M 7.484375 -10.875 L 7.484375 -9.078125 C 7.484375 -8.898438 7.394531 -8.8125 7.21875 -8.8125 L 5.546875 -8.8125 C 5.367188 -8.8125 5.28125 -8.898438 5.28125 -9.078125 L 5.28125 -10.40625 C 5.28125 -10.851562 5.0625 -11.078125 4.625 -11.078125 L 3.765625 -11.078125 C 3.316406 -11.078125 3.09375 -10.851562 3.09375 -10.40625 L 3.09375 -2.84375 C 3.09375 -2.40625 3.316406 -2.1875 3.765625 -2.1875 L 4.625 -2.1875 C 5.0625 -2.1875 5.28125 -2.40625 5.28125 -2.84375 L 5.28125 -4.171875 C 5.28125 -4.347656 5.367188 -4.4375 5.546875 -4.4375 L 7.21875 -4.4375 C 7.394531 -4.4375 7.484375 -4.347656 7.484375 -4.171875 L 7.484375 -2.390625 C 7.484375 -1.617188 7.273438 -1.023438 6.859375 -0.609375 C 6.453125 -0.203125 5.863281 0 5.09375 0 L 3.234375 0 C 2.460938 0 1.867188 -0.203125 1.453125 -0.609375 C 1.035156 -1.023438 0.828125 -1.617188 0.828125 -2.390625 L 0.828125 -10.875 C 0.828125 -11.65625 1.035156 -12.25 1.453125 -12.65625 C 1.867188 -13.0625 2.460938 -13.265625 3.234375 -13.265625 L 5.09375 -13.265625 C 5.863281 -13.265625 6.453125 -13.0625 6.859375 -12.65625 C 7.273438 -12.25 7.484375 -11.65625 7.484375 -10.875 Z M 7.484375 -10.875 "/></g></g></g><g fill="#ed1c24" fill-opacity="1"><g transform="translate(188.448167, 254.512147)"><g><path d="M 7.4375 -13 L 7.4375 -11.34375 C 7.4375 -11.15625 7.347656 -11.0625 7.171875 -11.0625 L 3.03125 -11.0625 L 3.03125 -7.734375 L 6.203125 -7.734375 C 6.378906 -7.734375 6.46875 -7.640625 6.46875 -7.453125 L 6.46875 -5.8125 C 6.46875 -5.625 6.378906 -5.53125 6.203125 -5.53125 L 3.03125 -5.53125 L 3.03125 -2.1875 L 7.171875 -2.1875 C 7.347656 -2.1875 7.4375 -2.097656 7.4375 -1.921875 L 7.4375 -0.265625 C 7.4375 -0.0859375 7.347656 0 7.171875 0 L 1.078125 0 C 0.910156 0 0.828125 -0.0859375 0.828125 -0.265625 L 0.828125 -13 C 0.828125 -13.175781 0.910156 -13.265625 1.078125 -13.265625 L 7.171875 -13.265625 C 7.347656 -13.265625 7.4375 -13.175781 7.4375 -13 Z M 7.4375 -13 "/></g></g></g><g fill="#ed1c24" fill-opacity="1"><g transform="translate(198.789099, 254.512147)"><g><path d="M 5.921875 -13.265625 L 7.640625 -13.265625 C 7.816406 -13.265625 7.90625 -13.175781 7.90625 -13 L 7.90625 -0.265625 C 7.90625 -0.0859375 7.816406 0 7.640625 0 L 6 0 C 5.84375 0 5.742188 -0.0703125 5.703125 -0.21875 L 3.171875 -7.296875 L 3.078125 -7.296875 L 3.078125 -0.265625 C 3.078125 -0.0859375 2.988281 0 2.8125 0 L 1.09375 0 C 0.914062 0 0.828125 -0.0859375 0.828125 -0.265625 L 0.828125 -13 C 0.828125 -13.175781 0.914062 -13.265625 1.09375 -13.265625 L 2.734375 -13.265625 C 2.890625 -13.265625 2.988281 -13.191406 3.03125 -13.046875 L 5.546875 -6 L 5.65625 -6 L 5.65625 -13 C 5.65625 -13.175781 5.742188 -13.265625 5.921875 -13.265625 Z M 5.921875 -13.265625 "/></g></g></g><g fill="#ed1c24" fill-opacity="1"><g transform="translate(209.593997, 254.512147)"><g><path d="M 0.765625 -13.265625 L 6.859375 -13.265625 C 7.035156 -13.265625 7.125 -13.175781 7.125 -13 L 7.125 -11.34375 C 7.125 -11.164062 7.035156 -11.078125 6.859375 -11.078125 L 4.9375 -11.078125 L 4.9375 -0.265625 C 4.9375 -0.0859375 4.847656 0 4.671875 0 L 2.953125 0 C 2.773438 0 2.6875 -0.0859375 2.6875 -0.265625 L 2.6875 -11.078125 L 0.765625 -11.078125 C 0.585938 -11.078125 0.5 -11.164062 0.5 -11.34375 L 0.5 -13 C 0.5 -13.175781 0.585938 -13.265625 0.765625 -13.265625 Z M 0.765625 -13.265625 "/></g></g></g><g fill="#ed1c24" fill-opacity="1"><g transform="translate(219.288682, 254.512147)"><g><path d="M 7.4375 -13 L 7.4375 -11.34375 C 7.4375 -11.15625 7.347656 -11.0625 7.171875 -11.0625 L 3.03125 -11.0625 L 3.03125 -7.734375 L 6.203125 -7.734375 C 6.378906 -7.734375 6.46875 -7.640625 6.46875 -7.453125 L 6.46875 -5.8125 C 6.46875 -5.625 6.378906 -5.53125 6.203125 -5.53125 L 3.03125 -5.53125 L 3.03125 -2.1875 L 7.171875 -2.1875 C 7.347656 -2.1875 7.4375 -2.097656 7.4375 -1.921875 L 7.4375 -0.265625 C 7.4375 -0.0859375 7.347656 0 7.171875 0 L 1.078125 0 C 0.910156 0 0.828125 -0.0859375 0.828125 -0.265625 L 0.828125 -13 C 0.828125 -13.175781 0.910156 -13.265625 1.078125 -13.265625 L 7.171875 -13.265625 C 7.347656 -13.265625 7.4375 -13.175781 7.4375 -13 Z M 7.4375 -13 "/></g></g></g><g fill="#ed1c24" fill-opacity="1"><g transform="translate(229.629614, 254.512147)"><g><path d="M 7.640625 -10.875 L 7.640625 -6.828125 C 7.640625 -5.722656 7.238281 -4.992188 6.4375 -4.640625 L 7.578125 -0.296875 C 7.628906 -0.0976562 7.550781 0 7.34375 0 L 5.625 0 C 5.46875 0 5.375 -0.078125 5.34375 -0.234375 L 4.234375 -4.4375 L 3.078125 -4.4375 L 3.078125 -0.265625 C 3.078125 -0.0859375 2.988281 0 2.8125 0 L 1.09375 0 C 0.914062 0 0.828125 -0.0859375 0.828125 -0.265625 L 0.828125 -13 C 0.828125 -13.175781 0.914062 -13.265625 1.09375 -13.265625 L 5.25 -13.265625 C 6.039062 -13.265625 6.632812 -13.0625 7.03125 -12.65625 C 7.4375 -12.25 7.640625 -11.65625 7.640625 -10.875 Z M 3.078125 -6.625 L 4.71875 -6.625 C 5.164062 -6.625 5.390625 -6.847656 5.390625 -7.296875 L 5.390625 -10.40625 C 5.390625 -10.851562 5.164062 -11.078125 4.71875 -11.078125 L 3.078125 -11.078125 Z M 3.078125 -6.625 "/></g></g></g></svg>