<svg xmlns="http://www.w3.org/2000/svg" xmlns:xlink="http://www.w3.org/1999/xlink" width="500" zoomAndPan="magnify" viewBox="0 0 375 374.999991" height="500" preserveAspectRatio="xMidYMid meet" version="1.0"><defs><clipPath id="abab857d45"><path d="M 127.0625 160.578125 L 247.8125 160.578125 L 247.8125 210 L 127.0625 210 Z M 127.0625 160.578125 " clip-rule="nonzero"/></clipPath></defs><g clip-path="url(#abab857d45)"><path fill="#ed1c24" d="M 216.683594 168.5 C 212.296875 207.542969 246.1875 199.613281 246.1875 199.613281 L 247.875 208.375 C 207.996094 214.441406 207.523438 178.25 207.523438 178.25 C 167.058594 181.644531 132.582031 208.976562 132.582031 208.976562 L 127.125 201.875 C 169.792969 169.425781 216.683594 168.5 216.683594 168.5 Z M 247.070312 172.648438 C 247.191406 179.441406 241.574219 185.117188 234.777344 185.117188 C 228.09375 185.117188 222.492188 179.625 222.488281 172.871094 C 222.484375 166.125 228.066406 160.621094 234.753906 160.605469 C 241.402344 160.59375 246.953125 166.007812 247.070312 172.648438 Z M 238.425781 172.648438 C 238.300781 170.75 236.675781 169.234375 234.78125 169.195312 C 232.769531 169.15625 230.984375 170.789062 230.964844 172.863281 C 230.945312 174.949219 232.714844 176.648438 234.78125 176.605469 C 236.894531 176.558594 238.566406 174.703125 238.425781 172.648438 Z M 238.425781 172.648438 " fill-opacity="1" fill-rule="nonzero"/><path fill="#ed1c24" d="M 216.683594 168.5 C 212.296875 207.542969 246.1875 199.613281 246.1875 199.613281 L 247.875 208.375 C 207.996094 214.441406 207.523438 178.25 207.523438 178.25 C 167.058594 181.644531 132.582031 208.976562 132.582031 208.976562 L 127.125 201.875 C 169.792969 169.425781 216.683594 168.5 216.683594 168.5 Z M 247.070312 172.648438 C 247.191406 179.441406 241.574219 185.117188 234.777344 185.117188 C 228.09375 185.117188 222.492188 179.625 222.488281 172.871094 C 222.484375 166.125 228.066406 160.621094 234.753906 160.605469 C 241.402344 160.59375 246.953125 166.007812 247.070312 172.648438 Z M 238.425781 172.648438 C 238.300781 170.75 236.675781 169.234375 234.78125 169.195312 C 232.769531 169.15625 230.984375 170.789062 230.964844 172.863281 C 230.945312 174.949219 232.714844 176.648438 234.78125 176.605469 C 236.894531 176.558594 238.566406 174.703125 238.425781 172.648438 Z M 238.425781 172.648438 " fill-opacity="1" fill-rule="nonzero"/></g></svg>